<mxfile host="app.diagrams.net" modified="2023-12-30T13:42:17.266Z" agent="Mozilla/5.0 (Windows NT 10.0; Win64; x64) AppleWebKit/537.36 (KHTML, like Gecko) Chrome/120.0.0.0 Safari/537.36" etag="QkGHMOabgCQ5x1JX7m5t" version="22.1.16" type="github">
  <diagram name="Page-1" id="HxRoTUaoPOwmKIP_bvgC">
    <mxGraphModel dx="2345" dy="1013" grid="1" gridSize="10" guides="1" tooltips="1" connect="1" arrows="1" fold="1" page="1" pageScale="1" pageWidth="850" pageHeight="1100" math="0" shadow="0">
      <root>
        <mxCell id="0" />
        <mxCell id="1" parent="0" />
        <mxCell id="WvGJcHZKkd67MsJQZ40Z-1" value="" style="shape=umlLifeline;perimeter=lifelinePerimeter;whiteSpace=wrap;html=1;container=1;dropTarget=0;collapsible=0;recursiveResize=0;outlineConnect=0;portConstraint=eastwest;newEdgeStyle={&quot;curved&quot;:0,&quot;rounded&quot;:0};participant=umlActor;size=60;" vertex="1" parent="1">
          <mxGeometry x="70" y="40" width="40" height="360" as="geometry" />
        </mxCell>
        <mxCell id="WvGJcHZKkd67MsJQZ40Z-2" value="Applicant/User" style="text;html=1;align=center;verticalAlign=middle;resizable=0;points=[];autosize=1;strokeColor=none;fillColor=none;" vertex="1" parent="1">
          <mxGeometry x="40" y="100" width="100" height="30" as="geometry" />
        </mxCell>
        <mxCell id="WvGJcHZKkd67MsJQZ40Z-3" value="Loan Application" style="shape=umlLifeline;perimeter=lifelinePerimeter;whiteSpace=wrap;html=1;container=1;dropTarget=0;collapsible=0;recursiveResize=0;outlineConnect=0;portConstraint=eastwest;newEdgeStyle={&quot;curved&quot;:0,&quot;rounded&quot;:0};" vertex="1" parent="1">
          <mxGeometry x="200" y="80" width="100" height="300" as="geometry" />
        </mxCell>
        <mxCell id="WvGJcHZKkd67MsJQZ40Z-5" value="" style="html=1;points=[[0,0,0,0,5],[0,1,0,0,-5],[1,0,0,0,5],[1,1,0,0,-5]];perimeter=orthogonalPerimeter;outlineConnect=0;targetShapes=umlLifeline;portConstraint=eastwest;newEdgeStyle={&quot;curved&quot;:0,&quot;rounded&quot;:0};" vertex="1" parent="WvGJcHZKkd67MsJQZ40Z-3">
          <mxGeometry x="45" y="80" width="10" height="180" as="geometry" />
        </mxCell>
        <mxCell id="WvGJcHZKkd67MsJQZ40Z-4" value="Workflow Tasks Processes" style="shape=umlLifeline;perimeter=lifelinePerimeter;whiteSpace=wrap;html=1;container=1;dropTarget=0;collapsible=0;recursiveResize=0;outlineConnect=0;portConstraint=eastwest;newEdgeStyle={&quot;curved&quot;:0,&quot;rounded&quot;:0};" vertex="1" parent="1">
          <mxGeometry x="360" y="80" width="100" height="300" as="geometry" />
        </mxCell>
        <mxCell id="WvGJcHZKkd67MsJQZ40Z-6" value="Submits Loan Application" style="html=1;verticalAlign=bottom;endArrow=block;curved=0;rounded=0;" edge="1" parent="1" target="WvGJcHZKkd67MsJQZ40Z-5">
          <mxGeometry width="80" relative="1" as="geometry">
            <mxPoint x="89.92857142857144" y="160" as="sourcePoint" />
            <mxPoint x="240" y="160" as="targetPoint" />
          </mxGeometry>
        </mxCell>
        <mxCell id="WvGJcHZKkd67MsJQZ40Z-7" value="Approval/Rejection decision" style="html=1;verticalAlign=bottom;endArrow=open;dashed=1;endSize=8;curved=0;rounded=0;" edge="1" parent="1">
          <mxGeometry x="-0.0038" relative="1" as="geometry">
            <mxPoint x="250" y="340" as="sourcePoint" />
            <mxPoint x="89.38888888888891" y="340" as="targetPoint" />
            <Array as="points">
              <mxPoint x="200" y="340" />
            </Array>
            <mxPoint as="offset" />
          </mxGeometry>
        </mxCell>
        <mxCell id="WvGJcHZKkd67MsJQZ40Z-8" value="Goes through tasks" style="html=1;verticalAlign=bottom;endArrow=block;curved=0;rounded=0;" edge="1" parent="1" source="WvGJcHZKkd67MsJQZ40Z-5" target="WvGJcHZKkd67MsJQZ40Z-4">
          <mxGeometry width="80" relative="1" as="geometry">
            <mxPoint x="260" y="180" as="sourcePoint" />
            <mxPoint x="340" y="180" as="targetPoint" />
            <Array as="points">
              <mxPoint x="300" y="180" />
            </Array>
          </mxGeometry>
        </mxCell>
        <mxCell id="WvGJcHZKkd67MsJQZ40Z-9" value="Evaluates against Loan Products" style="shape=note;whiteSpace=wrap;html=1;backgroundOutline=1;darkOpacity=0.05;size=15;" vertex="1" parent="1">
          <mxGeometry x="300" y="200" width="190" height="30" as="geometry" />
        </mxCell>
        <mxCell id="WvGJcHZKkd67MsJQZ40Z-10" value="Loan Product" style="shape=umlLifeline;perimeter=lifelinePerimeter;whiteSpace=wrap;html=1;container=1;dropTarget=0;collapsible=0;recursiveResize=0;outlineConnect=0;portConstraint=eastwest;newEdgeStyle={&quot;curved&quot;:0,&quot;rounded&quot;:0};" vertex="1" parent="1">
          <mxGeometry x="530" y="80" width="100" height="300" as="geometry" />
        </mxCell>
        <mxCell id="WvGJcHZKkd67MsJQZ40Z-12" value="" style="html=1;points=[[0,0,0,0,5],[0,1,0,0,-5],[1,0,0,0,5],[1,1,0,0,-5]];perimeter=orthogonalPerimeter;outlineConnect=0;targetShapes=umlLifeline;portConstraint=eastwest;newEdgeStyle={&quot;curved&quot;:0,&quot;rounded&quot;:0};" vertex="1" parent="WvGJcHZKkd67MsJQZ40Z-10">
          <mxGeometry x="45" y="190" width="10" height="30" as="geometry" />
        </mxCell>
        <mxCell id="WvGJcHZKkd67MsJQZ40Z-11" value="Request Loan Product Information" style="html=1;verticalAlign=bottom;endArrow=block;curved=0;rounded=0;" edge="1" parent="1">
          <mxGeometry width="80" relative="1" as="geometry">
            <mxPoint x="255" y="270" as="sourcePoint" />
            <mxPoint x="579.4999999999999" y="270" as="targetPoint" />
          </mxGeometry>
        </mxCell>
        <mxCell id="WvGJcHZKkd67MsJQZ40Z-14" value="Provides Product Details" style="html=1;verticalAlign=bottom;endArrow=open;dashed=1;endSize=8;curved=0;rounded=0;" edge="1" parent="1" target="WvGJcHZKkd67MsJQZ40Z-4">
          <mxGeometry relative="1" as="geometry">
            <mxPoint x="580" y="300" as="sourcePoint" />
            <mxPoint x="500" y="300" as="targetPoint" />
          </mxGeometry>
        </mxCell>
        <mxCell id="WvGJcHZKkd67MsJQZ40Z-15" value="Receives Product Details" style="html=1;verticalAlign=bottom;endArrow=open;dashed=1;endSize=8;curved=0;rounded=0;" edge="1" parent="1">
          <mxGeometry relative="1" as="geometry">
            <mxPoint x="410" y="320" as="sourcePoint" />
            <mxPoint x="255" y="320" as="targetPoint" />
            <Array as="points">
              <mxPoint x="340" y="320" />
            </Array>
          </mxGeometry>
        </mxCell>
      </root>
    </mxGraphModel>
  </diagram>
</mxfile>
